PathFileType	4	(X/Y/Z)	OpenSim_Sub04_EMGStiffKnee_Accel.trc
DataRate	CameraRate	NumFrames	NumMarkers	Units	OrigDataRate	OrigDataStartFrame	OrigNumFrames
100	100	34	8	m	100	5174	8277
Frame#	Time	torso_imu_offset_imu	pelvis_imu_offset_imu	tibia_r_imu_offset_imu	femur_r_imu_offset_imu	tibia_l_imu_offset_imu	femur_l_imu_offset_imu	toes_r_imu_offset_imu	toes_l_imu_offset_imu
				X1	Y1	Z1	X2	Y2	Z2	X3	Y3	Z3	X4	Y4	Z4	X5	Y5	Z5	X6	Y6	Z6	X7	Y7	Z7	X8		Y8	Z8	

5174	51.73000000	-7.82419026	0.20755693	8.12618435	8.30879686	1.98045065	3.83026229	9.58559477	3.17572093	0.43264810	8.92814735	-2.32323910	-0.75417121	9.47526330	-5.21750042	0.21202224	9.83162902	-0.59437433	-0.84675728	6.30601728	-1.83330021	7.45795572	8.08320485	-0.43693612	8.63244807
5175	51.74000000	-7.75463008	0.23103240	8.24530719	8.47233396	1.80758740	3.83906397	9.63579171	3.07076318	0.57314153	9.04554551	-2.58908549	-0.89833838	9.41073455	-4.95438894	0.36830655	9.79193311	-0.75199604	-0.86866725	6.44036591	-1.89597540	7.52729845	7.81392000	0.30016985	7.24084667
5176	51.75000000	-7.77541853	0.26217709	8.38499414	8.67244682	1.65690487	3.85143170	9.73124689	2.85123436	0.36556277	9.11797848	-2.85947407	-0.92599901	9.44423975	-4.26928132	0.65305007	9.78189054	-0.79657550	-0.95167348	6.39816983	-2.18675894	7.46763536	8.67730889	2.38620612	6.47096099
5177	51.76000000	-7.88449656	0.25196735	8.44691299	8.87425251	1.49124211	3.85725747	9.88149599	2.45336413	0.56477115	9.00544756	-3.18521298	-0.90546832	9.30897694	-3.08134627	0.98312366	9.57875712	-0.89755157	-0.73761883	6.11280440	-2.44611522	7.52446899	10.43431718	3.09116943	6.49722411
5178	51.77000000	-7.91411511	0.21092813	8.49218901	9.11042150	1.47622218	3.84499317	10.10601892	2.12119661	0.98544576	8.93888877	-3.53034239	-0.82556673	9.19408061	-2.11011386	1.20220039	9.33484261	-0.90912545	-0.51960445	6.14526808	-1.92240232	7.78714231	10.88567675	3.84178879	6.09979156
5179	51.78000000	-7.87531350	0.25001814	8.52368910	9.29367186	1.60199380	3.74666674	10.18620771	2.13326568	1.35495145	8.98686949	-3.98781272	-0.74136453	9.09008051	-1.55425853	1.31429289	9.12164418	-0.77245449	-0.56425386	6.41779353	-1.64746025	7.72434677	11.11989170	4.11896440	6.22325528
5180	51.79000000	-7.85366078	0.33670480	8.55379073	9.29764517	1.65129525	3.60307501	10.16972898	2.43705615	1.51503707	9.02302741	-4.31829710	-0.64563451	8.91698549	-0.96067688	1.33073619	8.89848028	-0.39190159	-0.71623599	6.43942231	-1.43593992	7.74225510	13.28994632	4.75598886	6.53162757
5181	51.80000000	-7.78434265	0.46355992	8.58320685	9.20288594	1.70899383	3.50727760	10.04562823	2.78800557	1.54310501	8.96122573	-4.63142686	-0.51390991	9.04505655	-0.51116721	1.52087748	8.83991456	0.21712474	-0.85008455	6.43719625	-1.19071269	7.89411307	14.08531091	7.06604679	6.00284819
5182	51.81000000	-7.77605450	0.57212115	8.55305774	9.15773282	1.81008942	3.44760283	9.98451273	2.83173619	1.73012914	8.78491677	-4.91556320	-0.47192098	9.36719668	-0.53272766	1.68713889	8.90773897	0.97954876	-0.96161458	6.43982557	-1.18909770	7.94879175	11.99822705	6.09280684	4.16118530
5183	51.82000000	-7.87354562	0.63377260	8.61458720	9.03942479	1.79432686	3.41824033	10.01750347	2.78318869	1.76543305	8.65929355	-5.08543233	-0.43271441	9.65871771	-0.78533352	1.45433346	8.91157757	1.78186134	-1.16845778	6.73108798	-0.97345164	7.87630293	11.21794650	2.48837083	1.80006485
5184	51.83000000	-7.89113566	0.74279231	8.70253535	8.93349339	1.71912463	3.34641861	10.01914641	2.80455644	1.75286167	8.68133227	-5.15645147	-0.41590024	9.92865948	-1.02692413	1.54047864	8.76926476	2.44866238	-1.31324832	6.88332462	-1.05488374	7.73382440	12.72690994	2.61452697	0.41178666
5185	51.84000000	-7.83391476	0.80361976	8.69547342	8.81894590	1.70638674	3.31194649	9.99657404	2.76059006	1.87595229	8.71613400	-5.08033468	-0.41341911	9.87263414	-0.99928622	1.87585887	8.59398039	2.96567400	-1.29915796	6.77325064	-1.02420152	7.77221684	15.96580861	1.01520329	-2.18177774
5186	51.85000000	-7.70740618	0.83304013	8.64725961	8.70033751	1.63299529	3.37847667	9.99334732	2.73682858	1.83774031	8.74691973	-4.99113244	-0.34228680	9.85644309	-1.15553649	1.74709601	8.63113729	3.19300438	-1.10737372	6.86158955	-0.99252720	7.85366011	20.16822187	10.32086974	-0.71672369
5187	51.86000000	-7.66152340	0.88480346	8.70744653	8.70982042	1.55914485	3.54145583	10.18326504	2.60697136	1.84240536	8.80958672	-4.84785331	-0.25592081	9.85186487	-2.59876570	0.96771733	8.86461596	3.07450588	-1.14625941	6.74735529	-1.11439858	8.10645421	35.36943166	-6.23805761	-5.67686786
5188	51.87000000	-7.97022121	0.89663929	8.78227254	8.74235018	1.55664656	3.84041875	10.71834200	2.21335684	1.88964100	8.99897353	-4.69150068	-0.14136770	10.25597582	-5.30671834	-0.06382659	9.50432839	2.86076887	-1.49363877	6.72654704	-1.54508149	8.41324467	34.15079576	-21.10624670	3.72971363
5189	51.88000000	-8.62887963	0.79283876	9.08240483	9.07330572	1.32555565	3.98322593	11.76851759	1.52482591	1.97810752	9.64709754	-4.68110523	0.03366611	10.36813185	-11.93174819	-4.41264623	10.46495561	2.57842503	-2.08410250	6.62972944	-2.30470796	8.90122013	3.96498905	-1.76520672	16.86052611
5190	51.89000000	-9.16032177	0.52018293	9.41415090	9.65638419	1.01400382	4.12027992	13.25453978	0.48974165	2.92101666	10.40115230	-4.45145442	0.09827927	12.03215554	-17.02182727	-3.36272537	10.70118630	1.65301839	-2.48057972	6.13585684	-2.97269328	9.05235121	1.90463403	5.63772247	12.92217242
5191	51.90000000	-9.09818642	0.27594852	9.45813482	10.09418902	1.12305869	4.60508141	14.61114767	-0.62681990	3.43376171	10.91868424	-4.19422010	0.16608243	12.77341098	-13.02307610	1.49758258	10.82113695	-0.33688070	-2.05183336	5.90088132	-3.21445629	9.11919417	8.24395270	4.56944309	12.45477182
5192	51.91000000	-8.97326291	0.15759300	9.53457934	10.50331624	1.44299341	4.88395032	15.32396455	-1.33020793	3.65858037	11.46529899	-4.29823967	0.39625312	8.88775342	-5.02479109	0.22760742	11.44659039	-2.83891447	-1.77758636	6.13528562	-2.85108755	9.30689536	2.79668792	1.65413329	11.71485878
5193	51.92000000	-8.99640455	0.06516409	9.62207596	10.70926327	1.77239503	5.06832744	15.51972863	-1.75351402	4.81480181	11.64372007	-4.49846471	0.47673345	6.86667659	-1.63973154	-1.74771965	11.56154935	-5.21675043	-2.21533185	6.41364996	-2.93397063	9.90159150	4.59857875	3.18514276	12.29843180
5194	51.93000000	-8.72192377	-0.07852037	9.57073457	10.52355717	2.05818633	5.52026353	15.41838317	-2.07429274	5.43865987	11.20314587	-4.67417675	0.68103046	8.65732135	-4.04064261	-0.81466582	10.95540269	-7.28408981	-2.86776951	6.99115068	-3.33014395	11.88391100	5.49083995	3.00151706	10.99653388
5195	51.94000000	-8.13519101	-0.13133837	9.29192689	10.24815904	1.93792853	5.75859955	15.53239032	-2.75779351	4.68215756	10.57758507	-4.85858206	1.26522209	10.14725714	-7.84580775	0.03437154	10.23761400	-7.69307532	-2.95477125	7.79730983	-2.11793021	13.39150700	6.30152122	1.61926976	10.63543167
5196	51.95000000	-7.54538468	-0.17262315	8.85849189	9.68446966	1.42133832	5.81921725	16.23095543	-3.46127133	4.12747888	9.99107497	-4.91233428	2.07585018	9.32703661	-8.30579838	-0.93126397	9.76568719	-6.26478139	-2.18891898	9.27073699	-1.06464057	13.29641825	5.19194131	2.13533040	11.22334030
5197	51.96000000	-6.94265413	-0.34794290	8.35527520	8.85996367	0.69225896	5.84149682	16.70317572	-2.95602267	3.33235155	9.51282979	-4.72547932	3.14157993	8.41006394	-5.84551460	0.56794482	9.47033211	-4.59215910	-1.65741596	11.74426007	-3.28816574	14.20562638	5.75516466	1.37701915	10.62437649
5198	51.97000000	-6.32965431	-0.52574411	7.86374220	8.10389126	-0.06663328	5.77749546	16.36325232	-1.52035276	1.98046791	9.18947487	-4.15842492	4.17963847	8.33374327	-4.52747171	1.79884255	9.30873512	-2.78832681	-2.27042518	10.13452124	-7.48211446	14.22898110	5.94786929	0.85675851	10.63067538
5199	51.98000000	-5.99139361	-0.69785953	7.56139325	7.35575403	-0.70759161	5.61889832	15.52227126	0.53711620	0.99631232	9.21023310	-3.40343085	4.58114331	8.47346100	-2.68976494	1.33272448	9.31145478	-0.83886252	-3.19221805	10.23945135	-7.29380154	13.51366933	5.52079716	1.56378844	10.81190576
5200	51.99000000	-5.96785323	-0.90642816	7.38626041	6.68323136	-1.21326580	5.23042838	13.88347250	3.48626197	-0.07272018	9.54238523	-2.59180791	3.64357930	9.44870137	-0.92793240	1.14217540	9.35377675	0.83218827	-3.32918560	12.80646275	-5.44233163	13.07742556	5.86229592	2.00399772	10.57906533
5201	52	-6.13629361	-1.07219785	7.28996260	6.22560539	-1.52006008	4.73820790	11.27801536	6.79073606	-0.58582660	9.67864548	-1.49823401	2.00625788	10.13551403	-0.25123682	0.18418067	9.33418947	2.02204818	-2.84130731	12.22663228	-8.46876482	11.04533816	5.09267639	2.04594041	11.06531993
5202	52.01000000	-6.46329209	-1.21793106	7.39015695	6.13797021	-1.65256663	4.41394788	8.39305694	9.66522690	-0.73617366	9.59001122	-0.35916518	0.97917529	10.22225026	-0.15751931	-0.49993007	9.32907149	2.90428388	-2.40986192	9.56752465	-6.03258847	5.21250690	5.11679713	2.52641037	10.94856006
5203	52.02000000	-7.09011327	-1.38036064	7.71362323	6.48553500	-1.66157489	4.29373858	5.84329176	12.37448733	-1.82806687	10.05353625	-0.00352438	0.39750583	10.07088018	-1.01373556	-0.93039701	9.30277530	3.46975319	-2.37209262	8.52652551	-8.18010642	17.55785510	5.41831895	2.89308098	10.63162569
5204	52.03000000	-7.81759345	-1.46054775	8.10745099	7.18517139	-1.54959530	4.61181329	4.09604889	12.60025092	-2.82042900	11.19868391	-0.83653203	-0.08061550	9.99448216	-2.40654493	-1.49488976	9.13995029	3.34955612	-2.71997573	-0.07906081	-16.76581821	23.04356383	5.56537171	2.93740560	10.61911755
5205	52.04000000	-8.58091157	-1.50534299	8.60058816	8.14115518	-1.33042015	5.03342324	4.11187018	9.08416999	0.02489485	12.30645873	-2.16505936	-0.83624947	10.46030433	-3.76986333	-1.66804333	8.94161889	2.74904296	-3.08573572	-5.96138038	-13.31987272	14.34164970	5.42713435	2.97737512	10.77226385
5206	52.05000000	-9.02977702	-1.42913315	8.98858548	9.24331113	-1.01250748	4.93330398	4.79786713	6.21099698	2.08261398	12.17234004	-3.40282290	-1.41934425	10.82905854	-4.36772474	-1.42057554	8.99878851	2.31741454	-3.36052638	-0.07103990	-6.98345102	19.06621401	5.17745464	3.02161829	10.77575269
5207	52.06000000	-8.38080858	-1.18004753	8.90571318	10.50158168	-0.55637832	4.62999258	4.30059368	6.44309985	-1.16642178	11.05466787	-3.61636179	-0.55687153	10.41309726	-4.04839833	-0.99371976	9.15436444	2.07075565	-3.64626787	-1.77342427	-8.44558958	17.57155363	5.55929783	2.46957823	10.65964691
